<svg width="1024" height="1024" viewBox="0 0 1024 1024" fill="none" xmlns="http://www.w3.org/2000/svg">
<path d="M681.135 264.89L355.396 761.613C341.685 782.52 334.83 792.974 326.534 796.065C319.3 798.76 311.259 798.23 304.441 794.609C296.622 790.456 291.198 779.193 280.35 756.668L186.63 562.072C182.754 554.024 180.816 550 180.231 545.829C179.714 542.137 179.966 538.379 180.973 534.789C182.11 530.734 184.569 527.005 189.486 519.547L388.695 217.42C393.376 210.322 395.716 206.773 398.82 204.202C401.569 201.927 404.741 200.219 408.153 199.177C412.008 198 416.259 198 424.761 198H645.01C671.026 198 684.034 198 691.247 203.43C697.531 208.162 701.439 215.398 701.949 223.248C702.535 232.257 695.402 243.134 681.136 264.889L681.135 264.89Z" fill="white"/>
<path d="M573.235 559.753L444.57 758.853C430.547 780.553 423.535 791.403 424.161 800.379C424.707 808.2 428.625 815.399 434.899 820.102C442.098 825.5 455.016 825.5 480.853 825.5H636.256C644.752 825.5 649 825.5 652.853 824.324C656.263 823.284 659.434 821.578 662.181 819.305C665.285 816.738 667.626 813.193 672.307 806.103L803.762 607.003C818.143 585.221 825.333 574.331 824.766 565.307C824.272 557.444 820.369 550.19 814.08 545.445C806.861 540 793.811 540 767.711 540H609.518C600.926 540 596.63 540 592.742 541.199C589.301 542.26 586.107 543.999 583.347 546.314C580.23 548.928 577.899 552.536 573.235 559.753Z" fill="white"/>
</svg>
